Lil Wayne – feat. Bruno Mars -  Mirror - 2012


Format                           : AVI
Format/Info                      : Audio Video Interleave
File size                        : 68.8 MiB
Duration                         : 4mn 1s
Overall bit rate                 : 2 385 Kbps
Writing application              : Lavf52.57.1

Video
ID                               : 0
Format                           : AVC
Format/Info                      : Advanced Video Codec
Format profile                   : High@L3.1
Format settings, CABAC           : Yes
Format settings, ReFrames        : 5 frames
Codec ID                         : H264
Duration                         : 4mn 1s
Bit rate                         : 2 056 Kbps
Width                            : 1 280 pixels
Height                           : 720 pixels
Display aspect ratio             : 16:9
Frame rate mode                  : Variable
Frame rate                       : 23.976 fps
Color space                      : YUV
Chroma subsampling               : 4:2:0
Bit depth                        : 8 bits
Scan type                        : Progressive
Bits/(Pixel*Frame)               : 0.093
Stream size                      : 59.2 MiB (86%)

Audio
ID                               : 1
Format                           : MPEG Audio
Format version                   : Version 1
Format profile                   : Layer 3
Mode                             : Joint stereo
Codec ID                         : 55
Codec ID/Hint                    : MP3
Duration                         : 4mn 1s
Bit rate mode                    : Constant
Bit rate                         : 320 Kbps
Channel(s)                       : 2 channels
Sampling rate                    : 48.0 KHz
Stream size                      : 9.23 MiB (13%)
Alignment                        : Aligned on interleaves
Interleave, duration             : 24 ms (0.57 video frame)
Writing library                  : LAME3.98.2



 
http://pichut.eu/x/lwow.jpg 